<svg id="Capa_1" data-name="Capa 1" xmlns="http://www.w3.org/2000/svg" viewBox="0 0 577.76 493.15"><defs><style>.cls-1{fill:#fff;stroke:#000;stroke-miterlimit:10;stroke-width:5px;}.cls-2{fill:none;}</style></defs><title>cine-wolke</title><path class="cls-1" d="M326.8,293.4,253.3,166.1c-2.91-5-8.43-7.26-12.39-5,4-2.28,4.8-8.17,1.89-13.21L169.3,20.6c-2.91-5-8.43-7.25-12.39-5L154.53,17l4.38,7.57c1.44,2.51,1,5.48-.95,6.61l-11.9,6.87c-2,1.14-4.75,0-6.19-2.48L135.49,28,40.29,83l4.37,7.58c1.44,2.5,1,5.47-.94,6.6L31.81,104c-2,1.14-4.75,0-6.19-2.48L21.24,94l-2.38,1.37c-3.95,2.29-4.8,8.18-1.89,13.22l73.5,127.31c2.91,5,8.44,7.25,12.39,5-4,2.28-4.8,8.17-1.89,13.21l73.5,127.31c2.91,5,8.44,7.25,12.39,5l2.38-1.37-4.37-7.58c-1.44-2.5-1-5.48.94-6.61l11.91-6.87c2-1.13,4.75,0,6.19,2.48l4.38,7.58,95.2-55-4.37-7.57c-1.45-2.5-1-5.48.94-6.61l11.9-6.87c2-1.14,4.75,0,6.2,2.48l4.37,7.58,2.38-1.37C328.87,304.33,329.71,298.44,326.8,293.4Zm-50.64-65.73,8.75,15.15c1.44,2.5,1,5.48-1,6.61l-11.9,6.87c-2,1.14-4.75,0-6.19-2.48l-8.75-15.16c-1.45-2.5-1-5.47.94-6.61l11.9-6.87C271.93,224.05,274.71,225.17,276.16,227.67ZM249,188.81c2-1.13,4.75,0,6.2,2.48l8.75,15.16c1.44,2.5,1,5.47-1,6.61l-11.9,6.87c-2,1.13-4.75,0-6.19-2.49l-8.75-15.15c-1.45-2.5-1-5.48.94-6.61Zm-96.32,47.53L212.14,202c2-1.14,4.75,0,6.2,2.48l21,36.37c1.44,2.5,1,5.48-1,6.61l-59.5,34.36c-2,1.13-4.76,0-6.2-2.49l-21-36.37C150.25,240.45,150.67,237.47,152.64,236.34Zm81.52-81.42,4.37,7.58,4.38,7.58c1.44,2.5,1,5.47-.95,6.6l-11.9,6.88c-2,1.13-4.75,0-6.19-2.49l-4.38-7.58h0l-4.37-7.58c-1.45-2.5-1-5.47.94-6.6l11.9-6.87C229.93,151.3,232.71,152.42,234.16,154.92Zm-129.72,6.19c-1.44-2.5-1-5.48,1-6.61l59.5-34.35c2-1.14,4.75,0,6.2,2.48l21,36.37c1.44,2.5,1,5.48-1,6.61L131.64,200c-2,1.13-4.75,0-6.2-2.49Zm108.72-42.56,8.75,15.15c1.44,2.5,1,5.48-.95,6.61l-11.9,6.87c-2,1.14-4.75,0-6.19-2.48l-8.75-15.16c-1.45-2.5-1-5.47.94-6.61l11.9-6.87C208.93,114.93,211.71,116.05,213.16,118.55Zm-21-36.37,8.75,15.15c1.44,2.5,1,5.47-.95,6.61l-11.9,6.87c-2,1.13-4.75,0-6.19-2.49l-8.75-15.15c-1.45-2.5-1-5.48.94-6.61L186,79.69C187.93,78.56,190.71,79.67,192.16,82.18Zm-39.1-32L165,43.32c2-1.14,4.75,0,6.2,2.48L179.91,61c1.44,2.5,1,5.47-.95,6.61l-11.9,6.87c-2,1.13-4.75,0-6.19-2.49L152.12,56.8C150.67,54.29,151.1,51.32,153.06,50.19ZM68.64,90.85l59.5-34.36c2-1.13,4.75,0,6.2,2.49l21,36.37c1.44,2.5,1,5.48-1,6.61l-59.5,34.35c-2,1.14-4.75,0-6.2-2.48l-21-36.37C66.25,95,66.67,92,68.64,90.85Zm-22,47.06-8.75-15.15c-1.44-2.5-1-5.48.94-6.61l11.91-6.87c2-1.14,4.75,0,6.19,2.48l8.75,15.16c1.44,2.5,1,5.47-.94,6.61L52.81,140.4C50.85,141.53,48.06,140.41,46.62,137.91Zm21,36.37-8.75-15.15c-1.44-2.5-1-5.48.94-6.61l11.91-6.87c2-1.13,4.75,0,6.19,2.49l8.75,15.15c1.44,2.5,1,5.48-.94,6.61l-11.91,6.87C71.85,177.9,69.06,176.79,67.62,174.28Zm27.19,38.86c-2,1.14-4.75,0-6.19-2.48L79.87,195.5c-1.44-2.5-1-5.47.94-6.61L92.72,182c2-1.13,4.75,0,6.19,2.49l8.75,15.15c1.44,2.5,1,5.48-.94,6.61ZM109.62,247l-4.38-7.58h0l-4.37-7.57c-1.44-2.51-1-5.48.94-6.61l11.91-6.87c2-1.14,4.75,0,6.19,2.48l4.38,7.58h0l4.37,7.58c1.44,2.5,1,5.47-.94,6.61l-11.91,6.87C113.85,250.65,111.06,249.53,109.62,247Zm21,36.37-8.75-15.15c-1.44-2.5-1-5.48.94-6.61l11.91-6.87c2-1.13,4.75,0,6.19,2.48l8.75,15.16c1.44,2.5,1,5.47-.94,6.61l-11.91,6.87C134.85,287,132.06,285.9,130.62,283.4Zm21,36.38-8.75-15.16c-1.44-2.5-1-5.47.94-6.61l11.91-6.87c2-1.13,4.75,0,6.19,2.49l8.75,15.15c1.44,2.5,1,5.48-.94,6.61l-11.91,6.87C155.85,323.4,153.06,322.28,151.62,319.78Zm39.1,32-11.91,6.88c-2,1.13-4.75,0-6.19-2.49L163.87,341c-1.44-2.5-1-5.47.94-6.6l11.91-6.87c2-1.14,4.75,0,6.19,2.48l8.75,15.16C193.1,347.66,192.68,350.63,190.72,351.76Zm84.42-40.66-59.5,34.36c-2,1.13-4.76,0-6.2-2.49l-21-36.37c-1.44-2.5-1-5.47.95-6.61l59.5-34.35c2-1.14,4.75,0,6.2,2.48l21,36.38C277.53,307,277.1,310,275.14,311.1ZM305,285.8l-11.9,6.87c-2,1.14-4.75,0-6.19-2.48L278.12,275c-1.45-2.5-1-5.47.94-6.6l11.9-6.87c2-1.14,4.75,0,6.2,2.48l8.75,15.16C307.35,281.7,306.93,284.67,305,285.8Z" transform="translate(-12.74 -12.23)"/><path class="cls-1" d="M43,395.44A107.44,107.44,0,0,0,150.49,502.89H459.41a120.91,120.91,0,0,0,40.12-235c.09-2.27.17-4.54.17-6.8a134.32,134.32,0,0,0-250.74-67,80.54,80.54,0,0,0-125.33,67,81.15,81.15,0,0,0,5.37,29A107.46,107.46,0,0,0,43,395.44Z" transform="translate(-12.74 -12.23)"/><path class="cls-2" d="M478.86,334.39,467,327.52c-2-1.14-4.75,0-6.19,2.48L452,345.16c-1.44,2.5-1,5.47.94,6.6l11.91,6.88c2,1.13,4.75,0,6.19-2.49L479.8,341C481.24,338.49,480.82,335.52,478.86,334.39Z" transform="translate(-12.74 -12.23)"/><path class="cls-2" d="M457.86,370.76,446,363.89c-2-1.13-4.75,0-6.19,2.48L431,381.53c-1.44,2.5-1,5.47.94,6.61L443.86,395c2,1.13,4.75,0,6.19-2.49l8.75-15.15C460.24,374.87,459.82,371.89,457.86,370.76Z" transform="translate(-12.74 -12.23)"/><path class="cls-2" d="M385.61,232.05l-11.9-6.87c-2-1.13-4.75,0-6.2,2.49l-8.75,15.15c-1.44,2.5-1,5.48.95,6.61l11.9,6.87c2,1.14,4.75,0,6.19-2.48l8.75-15.16C388,236.16,387.57,233.19,385.61,232.05Z" transform="translate(-12.74 -12.23)"/><path class="cls-2" d="M495,279l11.91,6.87c2,1.13,4.75,0,6.19-2.49l4.38-7.57h0l4.37-7.58c1.44-2.5,1-5.48-.94-6.61L509,254.77c-2-1.13-4.75,0-6.19,2.49l-4.38,7.57L494,272.41C492.57,274.91,493,277.88,495,279Z" transform="translate(-12.74 -12.23)"/><path class="cls-2" d="M380.71,213.06l11.9,6.87c2,1.13,4.75,0,6.19-2.49l4.38-7.57h0l4.37-7.58c1.45-2.5,1-5.48-.94-6.61l-11.9-6.87c-2-1.13-4.75,0-6.2,2.48l-4.37,7.58-4.38,7.58C378.32,209,378.74,211.92,380.71,213.06Z" transform="translate(-12.74 -12.23)"/><path class="cls-2" d="M499.86,298,488,291.14c-2-1.13-4.75,0-6.19,2.49L473,308.78c-1.44,2.5-1,5.48.94,6.61l11.91,6.87c2,1.14,4.75,0,6.19-2.48l8.75-15.16C502.24,302.12,501.82,299.15,499.86,298Z" transform="translate(-12.74 -12.23)"/><path class="cls-2" d="M356.8,290.19,365.55,275c1.45-2.5,1-5.47-.94-6.6l-11.9-6.88c-2-1.13-4.75,0-6.2,2.49l-3.78,6.55a201.28,201.28,0,0,1,12.75,21.22A6.41,6.41,0,0,0,356.8,290.19Z" transform="translate(-12.74 -12.23)"/><path class="cls-2" d="M427.61,159.31l-11.9-6.87c-2-1.14-4.75,0-6.2,2.48l-8.75,15.16c-1.44,2.5-1,5.47.95,6.6l11.9,6.88c2,1.13,4.75,0,6.19-2.49l8.75-15.16C430,163.41,429.57,160.44,427.61,159.31Z" transform="translate(-12.74 -12.23)"/><path class="cls-2" d="M541.86,225.27,530,218.4c-2-1.14-4.75,0-6.19,2.48L515,236c-1.44,2.5-1,5.47.94,6.61l11.91,6.87c2,1.13,4.75,0,6.19-2.49l8.75-15.15C544.24,229.37,543.82,226.4,541.86,225.27Z" transform="translate(-12.74 -12.23)"/><path class="cls-2" d="M517.28,190.87l-59.5-34.35c-2-1.13-4.75,0-6.2,2.48l-21,36.38c-1.44,2.5-1,5.47.95,6.61L491,236.34c2,1.13,4.75,0,6.2-2.49l21-36.37C519.67,195,519.25,192,517.28,190.87Z" transform="translate(-12.74 -12.23)"/><path class="cls-2" d="M562.86,188.89,551,182c-2-1.13-4.75,0-6.19,2.49L536,199.66c-1.44,2.5-1,5.48.94,6.61l11.91,6.87c2,1.14,4.75,0,6.19-2.48l8.75-15.16C565.24,193,564.82,190,562.86,188.89Z" transform="translate(-12.74 -12.23)"/><path class="cls-2" d="M583.86,152.52,572,145.65c-2-1.13-4.75,0-6.19,2.49L557,163.29c-1.44,2.5-1,5.48.94,6.61l11.91,6.87c2,1.13,4.75,0,6.19-2.49l8.75-15.15C586.24,156.63,585.82,153.66,583.86,152.52Z" transform="translate(-12.74 -12.23)"/><path class="cls-2" d="M468.28,138.33l59.5,34.36c2,1.13,4.75,0,6.2-2.49l21-36.37c1.44-2.5,1-5.48-1-6.61l-59.5-34.35c-2-1.14-4.75,0-6.2,2.48l-21,36.37C465.89,134.23,466.32,137.2,468.28,138.33Z" transform="translate(-12.74 -12.23)"/><path class="cls-2" d="M422.71,140.31l11.9,6.87c2,1.14,4.75,0,6.19-2.48l8.75-15.16c1.45-2.5,1-5.47-.94-6.61l-11.9-6.87c-2-1.13-4.75,0-6.2,2.49l-8.75,15.15C420.32,136.2,420.74,139.18,422.71,140.31Z" transform="translate(-12.74 -12.23)"/><path class="cls-2" d="M443.71,103.94l11.9,6.87c2,1.13,4.75,0,6.19-2.49l8.75-15.15c1.45-2.5,1-5.48-.94-6.61l-11.9-6.87c-2-1.13-4.75,0-6.2,2.49l-8.75,15.15C441.32,99.83,441.74,102.8,443.71,103.94Z" transform="translate(-12.74 -12.23)"/><polygon class="cls-1" points="371.39 186.64 369.01 185.26 369.01 185.26 369.01 185.26 371.39 186.64"/><polygon class="cls-1" points="504.68 263.59 504.68 263.59 507.06 264.97 507.06 264.97 507.06 264.97 504.68 263.59"/><path class="cls-2" d="M382.94,228.08,371,221.21c-2-1.14-4.75,0-6.2,2.48l-8.75,15.16c-1.44,2.5-1,5.47,1,6.61l11.9,6.87c2,1.13,4.75,0,6.19-2.49l8.75-15.15C385.33,232.18,384.9,229.21,382.94,228.08Z" transform="translate(-12.74 -12.23)"/><path class="cls-2" d="M465.61,134.36l59.5,34.35c2,1.14,4.75,0,6.2-2.48l21-36.38c1.44-2.5,1-5.47-.95-6.6l-59.5-34.36c-2-1.13-4.75,0-6.2,2.49l-21,36.37C463.22,130.25,463.65,133.22,465.61,134.36Z" transform="translate(-12.74 -12.23)"/><polygon class="cls-2" points="502.01 259.62 502.01 259.62 504.39 260.99 504.39 260.99 504.39 260.99 502.01 259.62"/><polygon class="cls-2" points="368.72 182.66 366.34 181.29 366.34 181.29 366.34 181.29 368.72 182.66"/><path class="cls-2" d="M378,209.08l11.9,6.87c2,1.14,4.75,0,6.19-2.48l4.38-7.58h0l4.37-7.58c1.45-2.5,1-5.47-.94-6.61L392,184.83c-2-1.13-4.75,0-6.2,2.49l-4.37,7.58-4.38,7.57C375.65,205,376.07,208,378,209.08Z" transform="translate(-12.74 -12.23)"/><path class="cls-2" d="M441,100l11.9,6.87c2,1.14,4.75,0,6.19-2.48l8.75-15.16c1.45-2.5,1-5.47-.94-6.6L455,75.71c-2-1.13-4.75,0-6.2,2.49l-8.75,15.16C438.65,95.86,439.07,98.83,441,100Z" transform="translate(-12.74 -12.23)"/><path class="cls-2" d="M518.18,257.67l-11.9-6.88c-2-1.13-4.75,0-6.19,2.49l-4.38,7.58-4.37,7.58c-1.44,2.5-1,5.47.94,6.6l11.91,6.87c2,1.14,4.75,0,6.19-2.48l4.38-7.58,4.37-7.58C520.57,261.77,520.15,258.8,518.18,257.67Z" transform="translate(-12.74 -12.23)"/><path class="cls-2" d="M514.61,186.9l-59.5-34.36c-2-1.13-4.75,0-6.2,2.49l-21,36.37c-1.44,2.5-1,5.48.95,6.61l59.5,34.35c2,1.14,4.75,0,6.2-2.48l21-36.37C517,191,516.58,188,514.61,186.9Z" transform="translate(-12.74 -12.23)"/><path class="cls-2" d="M560.19,184.92l-11.91-6.87c-2-1.14-4.75,0-6.19,2.48l-8.75,15.16c-1.44,2.5-1,5.47.94,6.61l11.91,6.87c2,1.13,4.75,0,6.19-2.49l8.75-15.15C562.57,189,562.15,186.05,560.19,184.92Z" transform="translate(-12.74 -12.23)"/><path class="cls-2" d="M581.19,148.55l-11.91-6.87c-2-1.14-4.75,0-6.19,2.48l-8.75,15.16c-1.44,2.5-1,5.47.94,6.6l11.91,6.87c2,1.14,4.75,0,6.19-2.48l8.75-15.16C583.57,152.65,583.15,149.68,581.19,148.55Z" transform="translate(-12.74 -12.23)"/><path class="cls-2" d="M420,136.34l11.9,6.87c2,1.13,4.75,0,6.19-2.49l8.75-15.15c1.45-2.5,1-5.48-.94-6.61L434,112.09c-2-1.14-4.75,0-6.2,2.48l-8.75,15.16C417.65,132.23,418.07,135.2,420,136.34Z" transform="translate(-12.74 -12.23)"/><path class="cls-2" d="M424.94,155.33,413,148.46c-2-1.13-4.75,0-6.2,2.49l-8.75,15.15c-1.44,2.5-1,5.48,1,6.61l11.9,6.87c2,1.13,4.75,0,6.19-2.49l8.75-15.15C427.33,159.44,426.9,156.47,424.94,155.33Z" transform="translate(-12.74 -12.23)"/><path class="cls-2" d="M479.09,289.65l-8.75,15.16c-1.44,2.5-1,5.47.94,6.61l11.9,6.87c2,1.13,4.76,0,6.2-2.49l8.75-15.15c1.44-2.5,1-5.48-.94-6.61l-11.91-6.87C483.32,286,480.53,287.15,479.09,289.65Z" transform="translate(-12.74 -12.23)"/><path class="cls-2" d="M539.19,221.29l-11.91-6.87c-2-1.13-4.75,0-6.19,2.49l-8.75,15.15c-1.44,2.5-1,5.48.94,6.61l11.9,6.87c2,1.13,4.76,0,6.2-2.48l8.75-15.16C541.57,225.4,541.15,222.43,539.19,221.29Z" transform="translate(-12.74 -12.23)"/><path class="cls-1" d="M584.38,149.49,582,148.12l-4.37,7.57c-1.45,2.5-4.23,3.62-6.2,2.49l-11.9-6.87c-2-1.14-2.39-4.11-.94-6.61l4.37-7.58-95.2-55-4.38,7.57c-1.44,2.5-4.23,3.62-6.19,2.49l-11.9-6.87c-2-1.14-2.39-4.11-1-6.61l4.37-7.58-2.38-1.37c-3.95-2.29-9.48-.07-12.39,5l-73.5,127.3c-2.9,5-2.06,10.93,1.89,13.22h0l2.38,1.37,4.38-7.57c1.44-2.5,4.23-3.62,6.2-2.49l11.9,6.87c2,1.14,2.38,4.11.94,6.61l-4.37,7.58h0l-4.38,7.57c-1.44,2.51-4.23,3.62-6.19,2.49l-11.9-6.87c-2-1.13-2.39-4.11-1-6.61l4.37-7.58-2.38-1.37h0c-3.95-2.28-9.48-.07-12.39,5l-30,51.92a95.35,95.35,0,0,1,30.2,15.17,96.43,96.43,0,0,1,13,11.7,5.92,5.92,0,0,1,.75-4l21-36.37c1.45-2.51,4.23-3.62,6.2-2.49l59.5,34.35c2,1.14,2.39,4.11.95,6.61l-18.33,31.75a95.23,95.23,0,0,1,38.55,17.23c2,1.52,4,3.12,5.87,4.77l24.62-42.65c2.91-5,2.07-10.93-1.89-13.22h0L498,293.61h0l-4.37,7.58c-1.45,2.5-4.23,3.61-6.2,2.48l-11.9-6.87c-2-1.13-2.39-4.11-.94-6.61l4.37-7.58,4.38-7.57c1.44-2.5,4.23-3.62,6.19-2.49l11.9,6.87c2,1.14,2.39,4.11.95,6.61L498,293.61l2.38,1.37h0c4,2.29,9.48.07,12.39-5l73.5-127.3C589.18,157.67,588.34,151.77,584.38,149.49Zm-217.25,107-8.75,15.16c-1.44,2.5-4.23,3.62-6.19,2.48l-11.9-6.87c-2-1.13-2.39-4.1-1-6.61l8.75-15.15c1.44-2.5,4.23-3.62,6.2-2.49l11.9,6.87C368.15,251,368.57,253.94,367.13,256.44ZM468.91,113.13c1.45-2.5,4.23-3.62,6.2-2.48L534.61,145c2,1.14,2.39,4.11.95,6.61l-21,36.37c-1.45,2.5-4.24,3.62-6.2,2.49l-59.5-34.36c-2-1.13-2.39-4.1-.95-6.6Zm-45.57,2L432.09,100c1.44-2.5,4.23-3.62,6.2-2.49l11.9,6.87c2,1.14,2.38,4.11.94,6.61l-8.75,15.16c-1.44,2.5-4.23,3.61-6.19,2.48l-11.9-6.87C422.32,120.59,421.9,117.61,423.34,115.11Zm-21,36.38,8.75-15.16c1.44-2.5,4.23-3.62,6.2-2.49l11.9,6.88c2,1.13,2.38,4.1.94,6.6l-8.75,15.16c-1.44,2.5-4.23,3.62-6.19,2.48l-11.9-6.87C401.32,157,400.9,154,402.34,151.49Zm6.79,32.21-8.75,15.15c-1.44,2.5-4.23,3.62-6.19,2.49l-11.9-6.87c-2-1.14-2.39-4.11-1-6.61l8.75-15.16c1.44-2.5,4.23-3.62,6.2-2.48l11.9,6.87C410.15,178.22,410.57,181.2,409.13,183.7Zm71.3,132.1c2,1.13,2.39,4.1.95,6.6l-8.75,15.16c-1.45,2.5-4.23,3.62-6.2,2.48l-11.9-6.87c-2-1.13-2.39-4.1-.94-6.6l8.75-15.16c1.44-2.5,4.23-3.62,6.19-2.49Zm-2.62-64.16c-1.45,2.5-4.24,3.62-6.2,2.48l-59.5-34.35c-2-1.14-2.39-4.11-.95-6.61l21-36.37c1.45-2.5,4.23-3.62,6.2-2.49l59.5,34.36c2,1.13,2.39,4.1.95,6.6Zm45.57-2-8.75,15.15c-1.45,2.5-4.23,3.62-6.2,2.49l-11.9-6.87c-2-1.14-2.39-4.11-.94-6.61l8.75-15.16c1.44-2.5,4.23-3.62,6.19-2.48l11.9,6.87C524.4,244.18,524.82,247.16,523.38,249.66Zm21-36.38-8.75,15.16c-1.45,2.5-4.23,3.62-6.2,2.48l-11.9-6.87c-2-1.13-2.39-4.1-.94-6.6l8.75-15.16c1.44-2.5,4.23-3.62,6.19-2.48l11.9,6.87C545.4,207.81,545.82,210.78,544.38,213.28Zm21-36.37-8.75,15.16c-1.45,2.5-4.23,3.62-6.2,2.48l-11.9-6.87c-2-1.13-2.39-4.11-.94-6.61l8.75-15.15c1.44-2.5,4.23-3.62,6.19-2.49l11.9,6.87C566.4,171.44,566.82,174.41,565.38,176.91Z" transform="translate(-12.74 -12.23)"/><path class="cls-1" d="M383.2,332.5a93.82,93.82,0,0,1,26-5.3L366,302.29A94.56,94.56,0,0,1,383.2,332.5Z" transform="translate(-12.74 -12.23)"/><path class="cls-1" d="M409.19,327.2l24,1.65A95,95,0,0,0,409.19,327.2Z" transform="translate(-12.74 -12.23)"/></svg>